<?xml version="1.0" encoding="UTF-8" standalone="no"?>
<svg
   xmlns:dc="http://purl.org/dc/elements/1.1/"
   xmlns:cc="http://creativecommons.org/ns#"
   xmlns:rdf="http://www.w3.org/1999/02/22-rdf-syntax-ns#"
   xmlns:svg="http://www.w3.org/2000/svg"
   xmlns="http://www.w3.org/2000/svg"
   xmlns:sodipodi="http://sodipodi.sourceforge.net/DTD/sodipodi-0.dtd"
   xmlns:inkscape="http://www.inkscape.org/namespaces/inkscape"
   width="1000"
   height="619.29584"
   viewBox="0 0 264.58333 163.85536"
   version="1.1"
   id="svg1231"
   inkscape:version="1.0.1 (3bc2e813f5, 2020-09-07)"
   sodipodi:docname="logo-v1.svg">
  <title
     id="title1074">Advanced Systems Logo V1</title>
  <defs
     id="defs1225">
    <rect
       x="1351.1544"
       y="297.0968"
       width="285.49731"
       height="60.990906"
       id="rect2195" />
    <rect
       x="923.39581"
       y="3.7041667"
       width="69.849998"
       height="68.791664"
       id="rect2051" />
    <rect
       x="264.58334"
       y="714.375"
       width="264.58334"
       height="39.6875"
       id="rect1970" />
    <rect
       x="26.458332"
       y="79.375"
       width="449.79166"
       height="370.41666"
       id="rect993" />
    <rect
       x="410.10416"
       y="19.187492"
       width="6.1618266e-11"
       height="105.83333"
       id="rect986" />
    <rect
       x="92.604164"
       y="-126.33334"
       width="317.5"
       height="145.52083"
       id="rect972" />
    <rect
       x="923.39581"
       y="3.7041667"
       width="69.849998"
       height="68.791664"
       id="rect2063" />
    <rect
       x="923.39581"
       y="3.7041667"
       width="69.849998"
       height="68.791664"
       id="rect2069" />
    <rect
       x="1351.1544"
       y="297.0968"
       width="266.78845"
       height="53.507359"
       id="rect1325" />
    <rect
       x="1351.1544"
       y="297.0968"
       width="266.78845"
       height="53.507359"
       id="rect1331" />
    <rect
       x="1351.1544"
       y="297.0968"
       width="266.78845"
       height="53.507359"
       id="rect1337" />
  </defs>
  <sodipodi:namedview
     id="base"
     pagecolor="#ffffff"
     bordercolor="#666666"
     borderopacity="1.0"
     inkscape:pageopacity="0.0"
     inkscape:pageshadow="2"
     inkscape:zoom="0.70710678"
     inkscape:cx="351.24099"
     inkscape:cy="384.56888"
     inkscape:document-units="px"
     inkscape:current-layer="layer1"
     showgrid="false"
     units="px"
     inkscape:window-width="1920"
     inkscape:window-height="1017"
     inkscape:window-x="1912"
     inkscape:window-y="-8"
     inkscape:window-maximized="1"
     inkscape:document-rotation="0"
     showguides="false"
     inkscape:guide-bbox="true"
     inkscape:lockguides="true"
     inkscape:snap-grids="true"
     fit-margin-top="0"
     fit-margin-left="0"
     fit-margin-right="0"
     fit-margin-bottom="0">
    <inkscape:grid
       type="xygrid"
       id="grid1776"
       spacingx="2.6458333"
       spacingy="2.6458333"
       originx="-132.29163"
       originy="-182.65566" />
    <sodipodi:guide
       position="238.12499,463.02085"
       orientation="0,-1"
       id="guide1005"
       inkscape:locked="true" />
    <sodipodi:guide
       position="198.43749,463.02086"
       orientation="0.70710678,-0.70710678"
       id="guide1011"
       inkscape:locked="true" />
    <sodipodi:guide
       position="152.04896,403.57604"
       orientation="-0.70710678,-0.70710678"
       id="guide1017"
       inkscape:locked="true" />
    <sodipodi:guide
       position="132.29165,357.18752"
       orientation="1,0"
       id="guide1166"
       inkscape:locked="true" />
    <sodipodi:guide
       position="198.43748,436.56254"
       orientation="0,-1"
       id="guide1168"
       inkscape:locked="true" />
    <sodipodi:guide
       position="92.604163,330.72918"
       orientation="1,0"
       id="guide1170"
       inkscape:locked="true" />
    <sodipodi:guide
       position="119.0625,330.72917"
       orientation="1,0"
       id="guide1172"
       inkscape:locked="true" />
    <sodipodi:guide
       position="103.71667,342.37083"
       orientation="0.70710678,-0.70710678"
       id="guide1174"
       inkscape:locked="true" />
    <sodipodi:guide
       position="132.29166,423.33335"
       orientation="0.70710678,-0.70710678"
       id="guide1176"
       inkscape:locked="true" />
    <sodipodi:guide
       position="119.0625,436.56251"
       orientation="0.70710678,-0.70710678"
       id="guide1178"
       inkscape:locked="true" />
  </sodipodi:namedview>
  <metadata
     id="metadata1228">
    <rdf:RDF>
      <cc:Work
         rdf:about="">
        <dc:format>image/svg+xml</dc:format>
        <dc:type
           rdf:resource="http://purl.org/dc/dcmitype/StillImage" />
        <dc:title>Advanced Systems Logo V1</dc:title>
        <dc:date>2020/11/25</dc:date>
        <dc:creator>
          <cc:Agent>
            <dc:title />
          </cc:Agent>
        </dc:creator>
        <dc:rights>
          <cc:Agent>
            <dc:title />
          </cc:Agent>
        </dc:rights>
        <cc:license
           rdf:resource="http://www.gnu.org/licenses/gpl-3.0.html" />
      </cc:Work>
    </rdf:RDF>
  </metadata>
  <g
     inkscape:label="Logo Font Orena"
     inkscape:groupmode="layer"
     id="layer1"
     transform="translate(-132.29163,49.511014)"
     style="display:inline">
    <text
       xml:space="preserve"
       id="text970"
       style="font-style:normal;font-weight:normal;font-size:141.111px;line-height:1.25;font-family:sans-serif;letter-spacing:0px;word-spacing:0px;white-space:pre;shape-inside:url(#rect972);fill:#000000;fill-opacity:1;stroke:none;"><tspan
         style="visibility:hidden"
         x="92.603516"
         y="158.09363"><tspan
           dx="0 65.938919 29.042061 64.233604"
           style="font-size:105.833px">blog</tspan></tspan></text>
    <text
       xml:space="preserve"
       id="text984"
       style="font-style:normal;font-weight:normal;font-size:10.5833px;line-height:1.25;font-family:sans-serif;letter-spacing:0px;word-spacing:0px;white-space:pre;shape-inside:url(#rect986);fill:#000000;fill-opacity:1;stroke:none;" />
    <g
       id="g2154"
       transform="translate(-899.58345,-208.26099)">
      <path
         id="path2139"
         style="fill:#202020;fill-opacity:0.992157;stroke:none;stroke-width:0.264583px;stroke-linecap:butt;stroke-linejoin:miter;stroke-opacity:1"
         d="m 1137.7084,158.75 v 87.3125 l -43.6563,-43.65625 -13.2291,-13.22917 -18.709,18.70894 13.2292,13.22916 43.4682,43.46815 h -86.9363 v 26.45833 h 132.2916 V 158.75 Z" />
      <path
         id="path2141"
         style="fill:#303f9f;fill-opacity:1;stroke:none;stroke-width:0.264583px;stroke-linecap:butt;stroke-linejoin:miter;stroke-opacity:1"
         d="m 1283.2292,224.89583 c 0,0 0,26.45834 -26.4583,26.45834 h -39.6875 -26.4584 v -26.45834 h 52.9167 13.2292 z" />
      <path
         style="fill:#1f1f1f;fill-opacity:0.992157;stroke:none;stroke-width:0.264583px;stroke-linecap:butt;stroke-linejoin:miter;stroke-opacity:1"
         d="m 1283.2292,291.04167 h -26.4583 c 0,-105.83333 -66.1459,-105.83333 -66.1459,-105.83333 v -26.45833 c 0,0 92.6042,-2e-5 92.6042,132.29166 z"
         id="path2143"
         sodipodi:nodetypes="ccccc" />
      <path
         style="fill:#3949ab;fill-opacity:1;stroke:none;stroke-width:0.264583px;stroke-linecap:butt;stroke-linejoin:miter;stroke-opacity:1"
         d="m 1296.4584,291.04166 h -21.1667 c 0,-105.83334 -84.6667,-105.83334 -84.6667,-105.83334 v -26.45834 c 0,0 105.8334,0 105.8334,132.29168 z"
         id="path2145"
         sodipodi:nodetypes="ccccc" />
      <path
         style="fill:#1a1a1a;fill-opacity:0.992157;stroke:none;stroke-width:0.264583px;stroke-linecap:butt;stroke-linejoin:miter;stroke-opacity:1"
         d="m 1081.3521,189.70625 56.8854,56.88542 0.2507,18.46561 -19.1477,0.0552 -56.6974,-56.69732 z"
         id="path2147" />
    </g>
    <g
       aria-label="Advanced Systems"
       transform="matrix(0.99097892,0,0,1,-1215.3313,-203.58929)"
       id="text2193"
       style="font-style:normal;font-weight:normal;font-size:21.1667px;line-height:1.25;font-family:sans-serif;letter-spacing:0px;word-spacing:0px;white-space:pre;shape-inside:url(#rect2195);fill:#191919;fill-opacity:1;stroke:none;stroke-width:1.00454">
      <path
         d="m 1363.6113,311.47406 v 6.36655 q 0,0.0723 -0.052,0.093 h -3.6276 q -0.031,0 -0.041,-0.093 v -16.67084 l 0.021,-0.15503 q 0.4961,-0.81649 1.7983,-0.81649 h 12.9605 q 0.1654,0 0.2997,0.0207 1.4056,0.27905 1.4056,1.01286 v 16.60883 q 0,0.0723 -0.041,0.093 h -3.638 q -0.031,0 -0.041,-0.093 v -6.36655 z m 9.0434,-3.43132 v -4.44418 h -9.0434 v 4.44418 z"
         style="font-style:normal;font-variant:normal;font-weight:normal;font-stretch:normal;font-size:21.1667px;font-family:Orena;-inkscape-font-specification:Orena;text-align:center;text-anchor:middle;fill:#191919;fill-opacity:1;stroke-width:1.0091"
         id="path870" />
      <path
         d="m 1390.1627,303.59856 h -9.033 v 10.93475 h 9.033 z m -12.7537,-3.40031 h 14.6657 q 1.3023,0 1.7984,0.81649 l 0.021,0.15503 v 15.79234 l -0.021,0.15503 q -0.4961,0.81649 -1.7984,0.81649 h -14.6657 z"
         style="font-style:normal;font-variant:normal;font-weight:normal;font-stretch:normal;font-size:21.1667px;font-family:Orena;-inkscape-font-specification:Orena;text-align:center;text-anchor:middle;fill:#191919;fill-opacity:1;stroke-width:1.0091"
         id="path872" />
      <path
         d="m 1401.8003,317.93363 -1.0542,-2.70785 -0.5685,-1.47795 -0.1653,-0.42375 -1.478,-3.79305 -2.9455,-7.62746 -0.6615,-1.70532 h 4.1444 l 1.7571,4.55787 2.3461,6.03581 2.3357,-6.03581 1.757,-4.55787 h 4.1445 l -0.6615,1.70532 -2.9455,7.62746 -1.478,3.79305 -0.1653,0.42375 -0.8785,2.29444 -0.7855,1.89136 z"
         style="font-style:normal;font-variant:normal;font-weight:normal;font-stretch:normal;font-size:21.1667px;font-family:Orena;-inkscape-font-specification:Orena;text-align:center;text-anchor:middle;fill:#191919;fill-opacity:1;stroke-width:1.0091"
         id="path874" />
      <path
         d="m 1416.1663,311.47406 v 6.36655 q 0,0.0723 -0.052,0.093 h -3.6277 q -0.031,0 -0.041,-0.093 v -16.67084 l 0.021,-0.15503 q 0.4961,-0.81649 1.7983,-0.81649 h 12.9605 q 0.1654,0 0.2997,0.0207 1.4056,0.27905 1.4056,1.01286 v 16.60883 q 0,0.0723 -0.041,0.093 h -3.638 q -0.031,0 -0.041,-0.093 v -6.36655 z m 9.0434,-3.43132 v -4.44418 h -9.0434 v 4.44418 z"
         style="font-style:normal;font-variant:normal;font-weight:normal;font-stretch:normal;font-size:21.1667px;font-family:Orena;-inkscape-font-specification:Orena;text-align:center;text-anchor:middle;fill:#191919;fill-opacity:1;stroke-width:1.0091"
         id="path876" />
      <path
         d="m 1433.6847,305.65529 v 12.27834 h -3.7207 v -16.76386 l 0.021,-0.15503 q 0.4961,-0.81649 1.7984,-0.81649 h 2.5735 l 3.0902,4.54753 5.2814,7.73081 v -12.27834 h 3.7207 v 16.76386 l -0.021,0.15503 q -0.4857,0.79582 -1.7363,0.81649 h -2.6355 l -2.4495,-3.59669 -0.279,-0.40308 -2.4495,-3.59668 z"
         style="font-style:normal;font-variant:normal;font-weight:normal;font-stretch:normal;font-size:21.1667px;font-family:Orena;-inkscape-font-specification:Orena;text-align:center;text-anchor:middle;fill:#191919;fill-opacity:1;stroke-width:1.0091"
         id="path878" />
      <path
         d="m 1451.203,314.53331 h 12.7641 v 3.40032 h -14.6658 q -1.3022,0 -1.7983,-0.81649 l -0.021,-0.15503 v -15.79234 l 0.021,-0.15503 q 0.4961,-0.81649 1.7983,-0.81649 h 14.6658 v 3.40031 h -12.7641 z"
         style="font-style:normal;font-variant:normal;font-weight:normal;font-stretch:normal;font-size:21.1667px;font-family:Orena;-inkscape-font-specification:Orena;text-align:center;text-anchor:middle;fill:#191919;fill-opacity:1;stroke-width:1.0091"
         id="path880" />
      <path
         d="m 1468.7214,308.04274 h 12.7641 v 3.43132 h -12.7641 v 3.05925 h 12.7641 v 3.40032 h -14.6658 q -1.3023,0 -1.7984,-0.81649 l -0.021,-0.15503 v -15.79234 l 0.021,-0.15503 q 0.4961,-0.81649 1.7984,-0.81649 h 14.6658 v 3.40031 h -12.7641 z"
         style="font-style:normal;font-variant:normal;font-weight:normal;font-stretch:normal;font-size:21.1667px;font-family:Orena;-inkscape-font-specification:Orena;text-align:center;text-anchor:middle;fill:#191919;fill-opacity:1;stroke-width:1.0091"
         id="path882" />
      <path
         d="m 1495.2728,303.59856 h -9.0331 v 10.93475 h 9.0331 z m -12.7538,-3.40031 h 14.6658 q 1.3022,0 1.7983,0.81649 l 0.021,0.15503 v 15.79234 l -0.021,0.15503 q -0.4961,0.81649 -1.7983,0.81649 h -14.6658 z"
         style="font-style:normal;font-variant:normal;font-weight:normal;font-stretch:normal;font-size:21.1667px;font-family:Orena;-inkscape-font-specification:Orena;text-align:center;text-anchor:middle;fill:#191919;fill-opacity:1;stroke-width:1.0091"
         id="path884" />
      <path
         d="m 1521.7725,303.59856 h -12.7641 v 4.44418 h 10.9451 q 1.3022,0 1.7983,0.81649 l 0.021,0.15503 v 7.94785 l -0.021,0.15503 q -0.4961,0.81649 -1.7983,0.81649 h -14.6658 v -3.40032 h 12.7641 v -3.05925 h -10.9451 q -1.3023,0 -1.7984,-0.81649 l -0.021,-0.15503 v -9.33277 l 0.021,-0.15503 q 0.4961,-0.81649 1.7984,-0.81649 h 14.6658 z"
         style="font-style:normal;font-variant:normal;font-weight:normal;font-stretch:normal;font-size:21.1667px;font-family:Orena;-inkscape-font-specification:Orena;text-align:center;text-anchor:middle;fill:#191919;fill-opacity:1;stroke-width:1.0091"
         id="path886" />
      <path
         d="m 1529.1932,309.57237 -0.341,-0.4961 v -0.0103 l -4.0618,-5.95314 -1.9844,-2.91455 h 4.3925 l 3.0903,4.54753 0.7648,1.10588 0.7545,-1.10588 3.0902,-4.54753 h 4.3925 l -1.9844,2.91455 -3.5243,5.16765 -0.8682,1.26091 v 8.39227 h -3.7207 z"
         style="font-style:normal;font-variant:normal;font-weight:normal;font-stretch:normal;font-size:21.1667px;font-family:Orena;-inkscape-font-specification:Orena;text-align:center;text-anchor:middle;fill:#191919;fill-opacity:1;stroke-width:1.0091"
         id="path888" />
      <path
         d="m 1556.8092,303.59856 h -12.7641 v 4.44418 h 10.945 q 1.3023,0 1.7984,0.81649 l 0.021,0.15503 v 7.94785 l -0.021,0.15503 q -0.4961,0.81649 -1.7984,0.81649 h -14.6658 v -3.40032 h 12.7641 v -3.05925 h -10.945 q -1.3023,0 -1.7984,-0.81649 l -0.021,-0.15503 v -9.33277 l 0.021,-0.15503 q 0.4961,-0.81649 1.7984,-0.81649 h 14.6658 z"
         style="font-style:normal;font-variant:normal;font-weight:normal;font-stretch:normal;font-size:21.1667px;font-family:Orena;-inkscape-font-specification:Orena;text-align:center;text-anchor:middle;fill:#191919;fill-opacity:1;stroke-width:1.0091"
         id="path890" />
      <path
         d="m 1564.4573,303.59856 h -6.6146 v -3.40031 h 16.4848 v 3.40031 h -6.1495 v 14.24205 q 0,0.0723 -0.052,0.093 h -3.6277 q -0.031,0 -0.041,-0.093 z"
         style="font-style:normal;font-variant:normal;font-weight:normal;font-stretch:normal;font-size:21.1667px;font-family:Orena;-inkscape-font-specification:Orena;text-align:center;text-anchor:middle;fill:#191919;fill-opacity:1;stroke-width:1.0091"
         id="path892" />
      <path
         d="m 1579.0817,308.04274 h 12.7641 v 3.43132 h -12.7641 v 3.05925 h 12.7641 v 3.40032 H 1577.18 q -1.3022,0 -1.7983,-0.81649 l -0.021,-0.15503 v -15.79234 l 0.021,-0.15503 q 0.4961,-0.81649 1.7983,-0.81649 h 14.6658 v 3.40031 h -12.7641 z"
         style="font-style:normal;font-variant:normal;font-weight:normal;font-stretch:normal;font-size:21.1667px;font-family:Orena;-inkscape-font-specification:Orena;text-align:center;text-anchor:middle;fill:#191919;fill-opacity:1;stroke-width:1.0091"
         id="path894" />
      <path
         d="m 1596.6001,305.30389 v 12.53672 q -0.01,0.093 -0.041,0.093 h -3.638 q -0.041,-0.0207 -0.041,-0.093 l -0.01,-15.70966 0.01,-0.0103 v -0.95084 l 0.021,-0.15503 q 0.4961,-0.81649 1.7984,-0.81649 h 2.5735 l 3.1005,4.24781 0.7545,1.03353 0.7442,-1.03353 3.1006,-4.24781 h 2.6458 q 1.2402,0.0207 1.726,0.81649 l 0.021,0.15503 v 16.67084 q 0,0.0723 -0.041,0.093 h -3.638 q -0.031,0 -0.041,-0.093 v -12.18532 l -0.01,0.0103 v -0.3514 l -3.1833,4.3615 -1.3022,1.78801 -0.021,0.031 -0.021,-0.031 -1.3126,-1.78801 z"
         style="font-style:normal;font-variant:normal;font-weight:normal;font-stretch:normal;font-size:21.1667px;font-family:Orena;-inkscape-font-specification:Orena;text-align:center;text-anchor:middle;fill:#191919;fill-opacity:1;stroke-width:1.0091"
         id="path896" />
      <path
         d="m 1626.8825,303.59856 h -12.7641 v 4.44418 h 10.9451 q 1.3022,0 1.7983,0.81649 l 0.021,0.15503 v 7.94785 l -0.021,0.15503 q -0.4961,0.81649 -1.7983,0.81649 h -14.6658 v -3.40032 h 12.7641 v -3.05925 h -10.9451 q -1.3022,0 -1.7983,-0.81649 l -0.021,-0.15503 v -9.33277 l 0.021,-0.15503 q 0.4961,-0.81649 1.7983,-0.81649 h 14.6658 z"
         style="font-style:normal;font-variant:normal;font-weight:normal;font-stretch:normal;font-size:21.1667px;font-family:Orena;-inkscape-font-specification:Orena;text-align:center;text-anchor:middle;fill:#191919;fill-opacity:1;stroke-width:1.0091"
         id="path898" />
    </g>
  </g>
</svg>
